<svg width="48" height="48" viewBox="0 0 48 48" fill="none" xmlns="http://www.w3.org/2000/svg">
<mask id="mask0_20_106" style="mask-type:alpha" maskUnits="userSpaceOnUse" x="0" y="0" width="48" height="48">
<rect width="48" height="48" fill="#D9D9D9"/>
</mask>
<g mask="url(#mask0_20_106)">
<path d="M8 27.05L13.05 22L8 16.95L2.95 22L8 27.05ZM35 26L40 18L45 26H35ZM24 24C22.3333 24 20.9167 23.4167 19.75 22.25C18.5833 21.0833 18 19.6667 18 18C18 16.3 18.5833 14.875 19.75 13.725C20.9167 12.575 22.3333 12 24 12C25.7 12 27.125 12.575 28.275 13.725C29.425 14.875 30 16.3 30 18C30 19.6667 29.425 21.0833 28.275 22.25C27.125 23.4167 25.7 24 24 24ZM24 16C23.4333 16 22.9583 16.1917 22.575 16.575C22.1917 16.9583 22 17.4333 22 18C22 18.5667 22.1917 19.0417 22.575 19.425C22.9583 19.8083 23.4333 20 24 20C24.5667 20 25.0417 19.8083 25.425 19.425C25.8083 19.0417 26 18.5667 26 18C26 17.4333 25.8083 16.9583 25.425 16.575C25.0417 16.1917 24.5667 16 24 16ZM0 36V32.85C0 31.3833 0.741667 30.2083 2.225 29.325C3.70833 28.4417 5.63333 28 8 28C8.43333 28 8.85 28.0083 9.25 28.025C9.65 28.0417 10.0333 28.0833 10.4 28.15C9.93333 28.8167 9.58333 29.5333 9.35 30.3C9.11667 31.0667 9 31.8833 9 32.75V36H0ZM12 36V32.75C12 30.5833 13.1083 28.8333 15.325 27.5C17.5417 26.1667 20.4333 25.5 24 25.5C27.6 25.5 30.5 26.1667 32.7 27.5C34.9 28.8333 36 30.5833 36 32.75V36H12ZM40 28C42.4 28 44.3333 28.4417 45.8 29.325C47.2667 30.2083 48 31.3833 48 32.85V36H39V32.75C39 31.8833 38.8917 31.0667 38.675 30.3C38.4583 29.5333 38.1333 28.8167 37.7 28.15C38.0667 28.0833 38.4417 28.0417 38.825 28.025C39.2083 28.0083 39.6 28 40 28ZM24 29.5C22.1 29.5 20.4 29.75 18.9 30.25C17.4 30.75 16.5167 31.3333 16.25 32H31.8C31.5 31.3333 30.6083 30.75 29.125 30.25C27.6417 29.75 25.9333 29.5 24 29.5Z" fill="#005E77"/>
</g>
</svg>
