<svg width="60" height="60" viewBox="0 0 60 60" fill="none" xmlns="http://www.w3.org/2000/svg">
<path fill-rule="evenodd" clip-rule="evenodd" d="M45.572 1.21114C28.2821 4.97226 9.87376 16.4247 3.75555 27.2278C-2.82971 38.854 -0.439868 51.8076 9.40134 57.8325C12.9543 60.0069 20.6858 60.6581 26.4541 59.2684C30.4098 58.3146 41.7872 52.526 43.787 50.4485C44.3864 49.8271 46.2958 48.1204 48.0307 46.6567C54.114 41.526 54.752 34.1104 48.7841 37.8945C47.2639 38.8588 46.0193 39.9864 46.0193 40.4013C46.0193 40.8152 45.4154 41.1543 44.6772 41.1543C43.9391 41.1543 43.3351 41.6124 43.3351 42.1714C43.3351 42.7304 42.9781 42.9513 42.5415 42.6622C42.1057 42.3731 41.2513 42.7794 40.6429 43.566C40.0344 44.3526 38.8614 44.9961 38.0365 44.9961C37.2106 44.9961 36.0806 45.484 35.5241 46.0814C33.5735 48.1752 16.493 49.5947 16.493 47.6633C16.493 47.0764 16.23 46.8795 15.9079 47.2253C15.5858 47.5701 14.1909 46.5818 12.8085 45.0287C10.6468 42.6007 10.3426 41.5884 10.6423 37.8263C11.3 29.5674 17.0934 23.2342 31.2562 15.2942C36.9181 12.1199 47.5762 7.53858 49.2985 7.53858C51.3797 7.53858 41.6897 18.8882 35.7683 23.386C34.377 24.4425 31.0844 26.2846 28.4503 27.4794C24.2978 29.3629 21.8498 29.9891 16.7167 30.4818C15.1536 30.6316 15.3182 33.9471 16.9619 35.4108C18.5438 36.8198 29.6403 36.0697 31.1479 34.4513C31.6508 33.9115 32.6779 33.4707 33.4304 33.4707C35.8319 33.4707 45.3885 26.5824 51.0093 20.7985C60.0291 11.5196 62.6221 3.02639 57.1203 0.781824C54.335 -0.355347 52.4489 -0.285235 45.572 1.21114Z" fill="#3BA4C4"/>
<path fill-rule="evenodd" clip-rule="evenodd" d="M45.5719 1.24687C28.3662 4.97533 9.948 16.4239 3.77431 27.228C-0.509685 34.7262 -1.22816 44.057 2.03674 49.7985C6.45047 57.5599 10.8069 59.9399 20.2142 59.7305C26.1544 59.598 28.0664 59.0745 34.581 55.7975C42.282 51.924 44.0903 50.6226 49.1947 45.2844C54.5148 39.7196 54.2222 34.4467 48.784 37.8947C47.2639 38.859 46.0193 39.9866 46.0193 40.4015C46.0193 40.8154 45.4154 41.1545 44.6772 41.1545C43.939 41.1545 43.3351 41.6126 43.3351 42.1716C43.3351 42.7306 42.9781 42.9515 42.5415 42.6624C42.1057 42.3733 41.2513 42.7796 40.6428 43.5662C40.0344 44.3528 38.8614 44.9963 38.0365 44.9963C37.2106 44.9963 36.0806 45.4842 35.524 46.0816C34.1998 47.503 30.9054 48.1196 22.9798 48.4308C18.7612 48.596 16.493 48.3194 16.493 47.6404C16.493 47.067 16.2299 46.8797 15.9078 47.2255C15.5857 47.5703 14.1908 46.582 12.8085 45.0289C10.6468 42.6009 10.3426 41.5886 10.6423 37.8265C11.2946 29.632 16.9914 23.3564 31.0226 15.3731C36.4689 12.2747 47.5162 7.53877 49.2985 7.53877C51.3806 7.53877 41.687 18.8913 35.7674 23.3862C31.8583 26.354 24.5429 29.4821 19.8483 30.1938C16.5386 30.6942 15.5983 31.2273 15.5983 32.6007C15.5983 35.5061 18.8059 36.6183 25.0968 35.8951C28.2284 35.5358 31.019 34.8424 31.2991 34.3564C31.58 33.8695 32.4819 33.4709 33.3042 33.4709C35.7289 33.4709 45.1791 26.789 50.595 21.2453C59.7186 11.905 62.5576 3.00065 57.1203 0.78201C54.3752 -0.338834 52.5527 -0.264879 45.5719 1.24687Z" fill="#3BA4C4"/>
<path fill-rule="evenodd" clip-rule="evenodd" d="M46.9141 0.974971C28.0217 5.26338 10.1413 16.1472 3.74124 27.2538C-2.92455 38.8215 0.041502 53.0275 10.2164 58.2648C12.4327 59.4048 15.3853 59.838 20.2142 59.7304C26.1544 59.5979 28.0664 59.0744 34.581 55.7974C42.282 51.9239 44.0903 50.6225 49.1948 45.2843C54.497 39.7387 54.2581 34.6858 48.8494 37.9916C47.2988 38.9386 46.0283 40.0374 46.0247 40.434C46.022 40.8307 45.4154 41.1544 44.6772 41.1544C43.9391 41.1544 43.3351 41.6125 43.3351 42.1715C43.3351 42.7305 42.9602 42.9399 42.5021 42.6364C42.044 42.3319 41.4231 42.5105 41.1233 43.0321C40.8227 43.5545 38.6807 44.9136 36.3642 46.0536C31.6928 48.352 16.493 49.6909 16.493 47.8045C16.493 47.2542 16.1271 47.0467 15.6797 47.3435C15.2323 47.6403 13.8357 46.5675 12.5759 44.9606C10.7327 42.6085 10.3426 41.2216 10.5779 37.8495C11.1371 29.824 17.0531 23.3208 31.0227 15.3731C36.4689 12.2747 47.5162 7.53868 49.2985 7.53868C51.4835 7.53868 41.9993 18.6424 35.763 23.3861C32.0704 26.1944 24.6682 29.4302 20.2241 30.1784C12.0873 31.548 15.252 36.9034 23.6509 35.9766C36.3419 34.5753 51.9192 23.3976 58.0607 11.2854C62.7867 1.96327 58.8006 -1.72389 46.9141 0.974971Z" fill="#3BA4C4"/>
<path fill-rule="evenodd" clip-rule="evenodd" d="M46.9141 0.974971C32.703 4.20016 17.394 11.9913 9.36465 20.0831C-3.02924 32.5737 -2.60335 51.6665 10.2164 58.2648C12.4327 59.4048 15.3853 59.838 20.2142 59.7304C26.1633 59.5979 28.0638 59.0754 34.632 55.7715C46.524 49.7898 55.5116 40.3947 52.4668 37.1263C51.5586 36.1514 48.2392 37.9734 44.7658 41.3532C43.8299 42.2637 42.75 42.8006 42.367 42.5461C41.9832 42.2916 41.4231 42.5105 41.1233 43.0321C40.8227 43.5545 38.6807 44.9011 36.3642 46.0258C31.3653 48.4519 16.493 49.8954 16.493 47.9544C16.493 47.3214 16.1271 47.0467 15.6797 47.3435C15.2323 47.6403 13.8356 46.5675 12.5759 44.9606C10.7327 42.6085 10.3426 41.2216 10.5779 37.8495C11.1371 29.824 17.0531 23.3208 31.0226 15.3731C36.4689 12.2747 47.5162 7.53868 49.2985 7.53868C51.258 7.53868 43.8201 16.4881 36.6174 22.7964C33.6389 25.4049 24.764 29.4763 20.5918 30.1476C12.1285 31.5105 14.9755 36.9342 23.6509 35.9766C36.3419 34.5753 51.9192 23.3976 58.0607 11.2854C62.7867 1.96327 58.8006 -1.72389 46.9141 0.974971Z" fill="#3BA4C4"/>
<path fill-rule="evenodd" clip-rule="evenodd" d="M46.9141 0.974971C32.703 4.20016 17.394 11.9913 9.36465 20.0831C-3.02924 32.5737 -2.60335 51.6665 10.2164 58.2648C12.4327 59.4048 15.3853 59.838 20.2142 59.7304C26.1633 59.5979 28.0638 59.0754 34.632 55.7715C46.524 49.7898 55.5116 40.3947 52.4668 37.1263C51.5586 36.1514 48.2392 37.9734 44.7658 41.3532C43.8299 42.2637 42.75 42.8006 42.367 42.5461C41.9832 42.2916 41.4231 42.5105 41.1233 43.0321C40.8227 43.5545 38.6807 44.9011 36.3642 46.0258C31.3653 48.4519 16.493 49.8954 16.493 47.9544C16.493 47.3214 16.1271 47.0467 15.6797 47.3435C15.2323 47.6403 13.8356 46.5675 12.5759 44.9606C10.7327 42.6085 10.3426 41.2216 10.5779 37.8495C11.1371 29.824 17.0531 23.3208 31.0226 15.3731C36.4689 12.2747 47.5162 7.53868 49.2985 7.53868C51.258 7.53868 43.8201 16.4881 36.6174 22.7964C33.6389 25.4049 24.764 29.4763 20.5918 30.1476C12.1285 31.5105 14.9755 36.9342 23.6509 35.9766C36.3419 34.5753 51.9192 23.3976 58.0607 11.2854C62.7867 1.96327 58.8006 -1.72389 46.9141 0.974971Z" fill="#3BA4C4"/>
<path fill-rule="evenodd" clip-rule="evenodd" d="M41.1448 2.85348C32.499 5.4976 23.276 9.98097 16.9404 14.618C13.9878 16.78 11.24 18.4377 10.8347 18.3023C10.4285 18.1669 10.3274 18.4569 10.6092 18.9468C10.892 19.4366 9.8147 20.7361 8.21581 21.8358C6.61691 22.9345 5.63091 23.8412 6.02549 23.8499C6.41917 23.8585 5.77049 25.2704 4.58318 26.9876C-1.30419 35.5001 -1.05277 47.1148 5.17639 54.4229C8.58265 58.4183 12.77 59.8965 20.2142 59.7303C26.1633 59.5978 28.0638 59.0753 34.632 55.7713C43.6554 51.2323 51.4548 44.5062 52.7424 40.1525C53.5691 37.3566 52.72 36.79 49.8255 38.2057C48.47 38.8684 47.2612 39.3707 47.1377 39.3217C47.0143 39.2737 46.0945 40.1131 45.0924 41.1888C44.0894 42.2655 42.8815 42.8879 42.4082 42.5728C41.934 42.2588 41.5456 42.3798 41.5456 42.8418C41.5456 43.3037 39.2381 44.7089 36.4179 45.9632C30.5484 48.5747 16.493 49.9702 16.493 47.9408C16.493 47.3155 16.1485 47.0322 15.728 47.3107C14.3054 48.2549 10.8893 43.1827 10.5189 39.5772C10.0572 35.0833 11.512 31.0263 15.0686 26.8906C18.4418 22.9672 27.6951 16.0424 28.4637 16.8664C28.7688 17.1949 29.0193 16.9337 29.0193 16.2863C29.0193 15.639 29.422 15.3758 29.9141 15.7024C30.4062 16.0289 30.8088 15.8887 30.8088 15.3912C30.8088 14.5229 34.1104 12.9814 35.5062 13.1975C35.8748 13.2542 36.1772 12.9555 36.1772 12.5338C36.1772 11.8183 41.781 9.1425 43.7825 8.90143C44.2746 8.84188 45.3814 8.51149 46.243 8.16573C49.7674 6.75387 50.4912 6.6924 50.4635 7.80844C50.4295 9.14154 43.1034 18.1035 42.0476 18.1035C41.6673 18.1035 40.5614 19.1878 39.5897 20.5142C38.6181 21.8396 37.4531 22.6781 37.0004 22.3784C36.5476 22.0778 36.1772 22.1969 36.1772 22.6416C36.1772 23.483 31.2463 26.9175 30.3364 26.7101C30.0519 26.6457 28.8377 27.2835 27.637 28.1287C26.4362 28.9729 23.6849 29.9237 21.5232 30.2416C16.7104 30.9505 15.1831 31.884 15.8381 33.7175C17.3761 38.0194 34.556 34.9987 40.1373 29.4445C41.0857 28.5013 42.6748 27.4525 43.6697 27.1135C45.6355 26.444 56.6685 14.3866 56.7472 12.821C56.7741 12.2928 57.5391 10.8233 58.4463 9.5555C60.0864 7.26675 60.0327 4.38348 58.3067 2.01597C57.0067 0.232419 48.3304 0.655016 41.1448 2.85348Z" fill="#3BA4C4"/>
<path fill-rule="evenodd" clip-rule="evenodd" d="M41.1448 2.85348C32.499 5.4976 23.276 9.98097 16.9404 14.618C13.9878 16.78 11.24 18.4377 10.8347 18.3023C10.4285 18.1669 10.3274 18.4569 10.6092 18.9468C10.892 19.4366 9.8147 20.7361 8.21581 21.8358C6.61691 22.9345 5.63091 23.8412 6.02549 23.8499C6.41917 23.8585 5.77049 25.2704 4.58318 26.9876C-1.30419 35.5001 -1.05277 47.1148 5.17639 54.4229C8.58265 58.4183 12.77 59.8965 20.2142 59.7303C26.1633 59.5978 28.0638 59.0753 34.632 55.7713C43.6554 51.2323 51.4548 44.5062 52.7424 40.1525C53.5691 37.3566 52.72 36.79 49.8255 38.2057C48.47 38.8684 47.2612 39.3707 47.1377 39.3217C47.0143 39.2737 46.0945 40.1131 45.0924 41.1888C44.0894 42.2655 42.8815 42.8879 42.4082 42.5728C41.934 42.2588 41.5456 42.3798 41.5456 42.8418C41.5456 43.3037 39.2381 44.7089 36.4179 45.9632C30.5484 48.5747 16.493 49.9702 16.493 47.9408C16.493 47.3155 16.1485 47.0322 15.728 47.3107C14.3054 48.2549 10.8893 43.1827 10.5189 39.5772C10.0572 35.0833 11.512 31.0263 15.0686 26.8906C18.4418 22.9672 27.6951 16.0424 28.4637 16.8664C28.7688 17.1949 29.0193 16.9337 29.0193 16.2863C29.0193 15.639 29.422 15.3758 29.9141 15.7024C30.4062 16.0289 30.8088 15.8887 30.8088 15.3912C30.8088 14.642 33.9565 13.2167 35.1823 13.4107C35.3737 13.4405 35.7764 13.0919 36.077 12.6366C36.7839 11.5667 42.8367 8.84188 47.1377 7.65669C49.5956 6.98053 50.485 7.03336 50.4635 7.85646C50.4286 9.15595 43.0801 18.1035 42.0476 18.1035C41.6673 18.1035 40.5614 19.1878 39.5897 20.5142C38.6181 21.8396 37.4531 22.6781 37.0004 22.3784C36.5476 22.0778 36.1772 22.1969 36.1772 22.6416C36.1772 23.483 31.2463 26.9175 30.3364 26.7101C30.0519 26.6457 28.8377 27.2835 27.637 28.1287C26.4362 28.9729 23.6849 29.9237 21.5232 30.2416C19.3615 30.5605 17.0853 31.1569 16.4653 31.568C14.6499 32.7724 16.1101 35.0689 19.0985 35.7104C24.4517 36.8601 32.6341 34.265 41.9438 28.4658C45.6113 26.1809 56.6622 14.5018 56.7472 12.821C56.7741 12.2928 57.5391 10.8233 58.4463 9.5555C60.0864 7.26675 60.0327 4.38348 58.3067 2.01597C57.0067 0.232419 48.3304 0.655016 41.1448 2.85348Z" fill="#3BA4C4"/>
<path fill-rule="evenodd" clip-rule="evenodd" d="M41.1448 2.85348C32.499 5.4976 23.276 9.98097 16.9404 14.618C13.9878 16.78 11.24 18.4377 10.8347 18.3023C10.4285 18.1669 10.3274 18.4569 10.6092 18.9468C10.892 19.4366 9.8147 20.7361 8.21581 21.8358C6.61691 22.9345 5.63091 23.8412 6.02549 23.8499C6.41917 23.8585 5.77049 25.2704 4.58318 26.9876C-1.30419 35.5001 -1.05277 47.1148 5.17639 54.4229C8.58265 58.4183 12.77 59.8965 20.2142 59.7303C26.1633 59.5978 28.0638 59.0753 34.632 55.7713C43.6554 51.2323 51.4548 44.5062 52.7424 40.1525C53.5745 37.3374 52.7075 36.7823 49.8255 38.2844C48.47 38.9904 47.059 39.4927 46.6904 39.4014C46.3217 39.3092 46.0193 39.6905 46.0193 40.2486C46.0193 40.8066 42.8994 42.8024 39.0851 44.682C33.3588 47.5057 30.7936 48.1886 24.3551 48.6006C16.5583 49.1001 16.5583 49.1001 13.3945 45.7039C6.70012 38.5178 10.5117 28.7885 23.761 19.2397C26.0354 17.6002 28.1496 16.5293 28.4583 16.8607C28.767 17.192 29.0193 16.9337 29.0193 16.2863C29.0193 15.639 29.422 15.3758 29.9141 15.7024C30.4062 16.0289 30.8088 15.8887 30.8088 15.3912C30.8088 14.642 33.9565 13.2167 35.1823 13.4107C35.3737 13.4405 35.7764 13.0919 36.077 12.6366C36.7839 11.5667 42.8367 8.84188 47.1377 7.65669C49.7101 6.94884 50.493 7.01895 50.493 7.95731C50.493 9.64578 37.9443 23.0047 36.9673 22.3554C36.5324 22.0673 36.1772 22.1969 36.1772 22.6416C36.1772 23.483 31.2463 26.9175 30.3364 26.7101C30.0519 26.6457 28.8377 27.2835 27.637 28.1287C26.4362 28.9729 23.6849 29.9237 21.5232 30.2416C19.3615 30.5605 17.0853 31.1569 16.4653 31.568C14.6499 32.7724 16.1101 35.0689 19.0985 35.7104C24.4517 36.8601 32.6341 34.265 41.9438 28.4658C45.6113 26.1809 56.6622 14.5018 56.7472 12.821C56.7741 12.2928 57.5391 10.8233 58.4463 9.5555C60.0864 7.26675 60.0327 4.38348 58.3067 2.01597C57.0067 0.232419 48.3304 0.655016 41.1448 2.85348Z" fill="#005E77"/>
</svg>
