<svg width="48" height="48" viewBox="0 0 48 48" fill="none" xmlns="http://www.w3.org/2000/svg">
<mask id="mask0_20_112" style="mask-type:alpha" maskUnits="userSpaceOnUse" x="0" y="0" width="48" height="48">
<rect width="48" height="48" fill="#D9D9D9"/>
</mask>
<g mask="url(#mask0_20_112)">
<path d="M4 46V42H44V46H4ZM8 40V28C6.9 26.2 6.05 24.2917 5.45 22.275C4.85 20.2583 4.55 18.2 4.55 16.1C4.55 14.0667 4.80833 12.0667 5.325 10.1C5.84167 8.13333 6.45 6.2 7.15 4.3C7.41667 3.6 7.85 3.04167 8.45 2.625C9.05 2.20833 9.71667 2 10.45 2C11.4833 2 12.3667 2.35 13.1 3.05C13.8333 3.75 14.1333 4.58333 14 5.55L13.45 10.1C13.25 11.7 13.3917 13.2167 13.875 14.65C14.3583 16.0833 15.0833 17.3417 16.05 18.425C17.0167 19.5083 18.1833 20.375 19.55 21.025C20.9167 21.675 22.4 22 24 22C26 22 28.0083 22.2083 30.025 22.625C32.0417 23.0417 33.8 23.6333 35.3 24.4C36.8 25.1667 37.9583 26.1417 38.775 27.325C39.5917 28.5083 40 29.9667 40 31.7V40H8ZM12 36H36V31.7C36 30.9 35.8 30.1917 35.4 29.575C35 28.9583 34.4333 28.4667 33.7 28.1C32.3333 27.4333 30.75 26.9167 28.95 26.55C27.15 26.1833 25.5 26 24 26C21.8 26 19.7583 25.55 17.875 24.65C15.9917 23.75 14.3917 22.5417 13.075 21.025C11.7583 19.5083 10.7667 17.7583 10.1 15.775C9.43333 13.7917 9.23333 11.7333 9.5 9.6C9.16667 10.6 8.925 11.6667 8.775 12.8C8.625 13.9333 8.55 15.0333 8.55 16.1C8.55 18.0333 8.89167 19.8917 9.575 21.675C10.2583 23.4583 11.0667 25.2 12 26.9V36ZM24 20C21.8 20 19.9167 19.2167 18.35 17.65C16.7833 16.0833 16 14.2 16 12C16 9.8 16.7833 7.91667 18.35 6.35C19.9167 4.78333 21.8 4 24 4C26.2 4 28.0833 4.78333 29.65 6.35C31.2167 7.91667 32 9.8 32 12C32 14.2 31.2167 16.0833 29.65 17.65C28.0833 19.2167 26.2 20 24 20ZM24 16C25.1 16 26.0417 15.6083 26.825 14.825C27.6083 14.0417 28 13.1 28 12C28 10.9 27.6083 9.95833 26.825 9.175C26.0417 8.39167 25.1 8 24 8C22.9 8 21.9583 8.39167 21.175 9.175C20.3917 9.95833 20 10.9 20 12C20 13.1 20.3917 14.0417 21.175 14.825C21.9583 15.6083 22.9 16 24 16ZM16 40V38.15C16 35.9167 16.775 34 18.325 32.4C19.875 30.8 21.7667 30 24 30H32V34H24C22.8667 34 21.9167 34.4083 21.15 35.225C20.3833 36.0417 20 37.0167 20 38.15V40H16Z" fill="#005E77"/>
</g>
</svg>
